<svg width="64" height="64" viewBox="0 0 64 64" fill="none" xmlns="http://www.w3.org/2000/svg">
<path d="M37.25 1.3125C39.4792 2.08333 41.5 3.14583 43.3125 4.5C45.125 5.85417 46.6771 7.4375 47.9688 9.25C49.2604 11.0625 50.25 13.0521 50.9375 15.2188C51.625 17.3854 51.9792 19.6458 52 22C52 25 51.4271 27.7812 50.2812 30.3438C49.1354 32.9062 47.5104 35.2604 45.4062 37.4062C43.9271 38.9271 42.75 40.5417 41.875 42.25C41 43.9583 40.4479 45.875 40.2188 48H19.7812C19.5521 45.875 19.0104 43.9583 18.1562 42.25C17.3021 40.5417 16.125 38.9375 14.625 37.4375C12.5417 35.2917 10.9167 32.9375 9.75 30.375C8.58333 27.8125 8 25.0208 8 22C8 19.9792 8.26042 18.0312 8.78125 16.1562C9.30208 14.2812 10.0417 12.5208 11 10.875C11.9583 9.22917 13.1042 7.75 14.4375 6.4375C15.7708 5.125 17.25 3.97917 18.875 3C20.5 2.02083 22.25 1.28125 24.125 0.78125C26 0.28125 27.9583 0.0208333 30 0C30.2292 0 30.4479 0.0104167 30.6562 0.03125C30.8646 0.0520833 31.0938 0.0833333 31.3438 0.125L19.4688 12L33.4688 26L25.25 34.2188L28.7812 37.7812L40.5312 26L26.5312 12L37.25 1.3125ZM20 52H40V58C40 58.8333 39.8438 59.6146 39.5312 60.3438C39.2188 61.0729 38.7917 61.7083 38.25 62.25C37.7083 62.7917 37.0729 63.2188 36.3438 63.5312C35.6146 63.8438 34.8333 64 34 64H26C25.1667 64 24.3854 63.8438 23.6562 63.5312C22.9271 63.2188 22.2917 62.7917 21.75 62.25C21.2083 61.7083 20.7812 61.0729 20.4688 60.3438C20.1562 59.6146 20 58.8333 20 58V52Z" fill="currentColor"/>
</svg>
