<svg width="128" height="128" viewBox="0 0 128 128" fill="none" xmlns="http://www.w3.org/2000/svg">
<path d="M52.6514 8.79266C59.3319 3.61675 68.6681 3.61675 75.3486 8.79266V8.79266C78.7515 11.4291 82.9662 12.7986 87.2688 12.6658V12.6658C95.7158 12.4051 103.269 17.8928 105.631 26.0069V26.0069C106.835 30.14 109.439 33.7252 112.998 36.1468V36.1468C119.985 40.9009 122.87 49.7802 120.012 57.7332V57.7332C118.556 61.7842 118.556 66.2158 120.012 70.2668V70.2668C122.87 78.2198 119.985 87.0991 112.998 91.8532V91.8532C109.439 94.2748 106.835 97.86 105.631 101.993V101.993C103.269 110.107 95.7158 115.595 87.2688 115.334V115.334C82.9662 115.201 78.7515 116.571 75.3486 119.207V119.207C68.6681 124.383 59.3319 124.383 52.6514 119.207V119.207C49.2485 116.571 45.0338 115.201 40.7312 115.334V115.334C32.2842 115.595 24.731 110.107 22.3687 101.993V101.993C21.1654 97.86 18.5606 94.2748 15.0016 91.8532V91.8532C8.01465 87.0991 5.12959 78.2198 7.98779 70.2668V70.2668C9.44368 66.2158 9.44368 61.7842 7.98779 57.7332V57.7332C5.12959 49.7802 8.01465 40.9009 15.0016 36.1468V36.1468C18.5606 33.7252 21.1654 30.14 22.3687 26.0069V26.0069C24.731 17.8928 32.2842 12.4051 40.7312 12.6658V12.6658C45.0338 12.7986 49.2485 11.4291 52.6514 8.79266V8.79266Z" fill="url(#paint0_linear_46_70)"/>
<path d="M59.302 29.8752C62.1854 28.1105 65.8146 28.1105 68.698 29.8752L68.8251 29.953C70.5021 30.9793 72.469 31.4282 74.4252 31.2312L74.5734 31.2162C77.937 30.8774 81.2067 32.452 83.039 35.293L83.1197 35.4182C84.1853 37.0705 85.7627 38.3284 87.6106 38.9996L87.7507 39.0505C90.9281 40.2046 93.1909 43.042 93.609 46.3966L93.6274 46.5444C93.8706 48.4954 94.746 50.3131 96.1197 51.7197L96.2238 51.8263C98.5859 54.2448 99.3934 57.7829 98.3146 60.9868L98.2671 61.1279C97.6397 62.9912 97.6397 65.0088 98.2671 66.8721L98.3146 67.0132C99.3934 70.2171 98.5859 73.7552 96.2238 76.1737L96.1197 76.2803C94.746 77.6868 93.8706 79.5046 93.6274 81.4556L93.609 81.6034C93.1909 84.958 90.9281 87.7954 87.7507 88.9495L87.6106 89.0004C85.7627 89.6716 84.1853 90.9295 83.1197 92.5818L83.039 92.707C81.2067 95.548 77.937 97.1226 74.5734 96.7838L74.4252 96.7688C72.469 96.5718 70.5021 97.0207 68.8251 98.047L68.698 98.1248C65.8146 99.8895 62.1854 99.8895 59.302 98.1248L59.1749 98.047C57.4979 97.0207 55.531 96.5718 53.5748 96.7688L53.4266 96.7838C50.063 97.1226 46.7933 95.548 44.961 92.707L44.8803 92.5818C43.8147 90.9295 42.2373 89.6716 40.3894 89.0004L40.2493 88.9495C37.0718 87.7954 34.8091 84.958 34.391 81.6034L34.3726 81.4556C34.1294 79.5046 33.254 77.6868 31.8803 76.2803L31.7762 76.1737C29.4141 73.7552 28.6066 70.2171 29.6854 67.0132L29.7329 66.8721C30.3603 65.0088 30.3603 62.9912 29.7329 61.1279L29.6854 60.9868C28.6066 57.7829 29.4141 54.2448 31.7762 51.8263L31.8803 51.7197C33.254 50.3131 34.1294 48.4954 34.3726 46.5444L34.391 46.3966C34.8091 43.042 37.0718 40.2046 40.2493 39.0505L40.3894 38.9996C42.2373 38.3284 43.8147 37.0705 44.8803 35.4182L44.961 35.293C46.7933 32.452 50.063 30.8774 53.4266 31.2162L53.5748 31.2312C55.531 31.4282 57.4979 30.9793 59.1749 29.953L59.302 29.8752Z" fill="url(#paint1_linear_46_70)"/>
<path d="M40.8224 62.3705C45.9597 59.4045 53.2584 62.4283 57.1244 69.1244C60.9903 75.8205 59.9597 83.6532 54.8224 86.6192C49.6851 89.5853 49.9972 82.1674 46.1312 75.4713C42.2652 68.7752 35.6851 65.3366 40.8224 62.3705Z" fill="url(#paint2_linear_46_70)"/>
<path d="M73.3016 86.6192C68.1643 83.6532 67.1337 75.8205 70.9997 69.1244C74.8657 62.4283 82.1643 59.4044 87.3016 62.3705C92.4389 65.3365 85.8588 68.7752 81.9928 75.4713C78.1268 82.1674 78.4389 89.5852 73.3016 86.6192Z" fill="url(#paint3_linear_46_70)"/>
<path d="M78 46.2591C78 52.1911 71.732 57 64 57C56.268 57 50 52.1911 50 46.2591C50 40.327 56.268 44.3062 64 44.3062C71.732 44.3062 78 40.327 78 46.2591Z" fill="url(#paint4_linear_46_70)"/>
<defs>
<linearGradient id="paint0_linear_46_70" x1="48" y1="6.03497e-07" x2="75" y2="124.5" gradientUnits="userSpaceOnUse">
<stop stop-color="#0FCE2F"/>
<stop offset="0.331731" stop-color="#62CD10"/>
<stop offset="0.620629" stop-color="#61B313"/>
<stop offset="0.83015" stop-color="#20A636"/>
<stop offset="1" stop-color="#17992D"/>
</linearGradient>
<linearGradient id="paint1_linear_46_70" x1="46.5" y1="32" x2="81" y2="97.5" gradientUnits="userSpaceOnUse">
<stop offset="0.0304429" stop-color="#F4E9DB"/>
<stop offset="1" stop-color="#E6E98D"/>
</linearGradient>
<linearGradient id="paint2_linear_46_70" x1="45" y1="76.1244" x2="57.1244" y2="69.1244" gradientUnits="userSpaceOnUse">
<stop stop-color="#F24848"/>
<stop offset="1" stop-color="#E7AC55"/>
</linearGradient>
<linearGradient id="paint3_linear_46_70" x1="83.124" y1="76.1244" x2="70.9997" y2="69.1244" gradientUnits="userSpaceOnUse">
<stop stop-color="#F24848"/>
<stop offset="1" stop-color="#E7AC55"/>
</linearGradient>
<linearGradient id="paint4_linear_46_70" x1="64" y1="43" x2="64" y2="57" gradientUnits="userSpaceOnUse">
<stop stop-color="#F24848"/>
<stop offset="1" stop-color="#E7AC55"/>
</linearGradient>
</defs>
</svg>
