<svg width="128" height="128" viewBox="0 0 128 128" fill="none" xmlns="http://www.w3.org/2000/svg">
<path opacity="0.15" d="M13.8133 121.147C13.8133 122.257 19.1008 123.322 28.5127 124.107C37.9245 124.892 50.6897 125.333 64 125.333C77.3103 125.333 90.0755 124.892 99.4873 124.107C108.899 123.322 114.187 122.257 114.187 121.147C114.187 120.036 108.899 118.971 99.4873 118.186C90.0755 117.401 77.3103 116.96 64 116.96C50.6897 116.96 37.9245 117.401 28.5127 118.186C19.1008 118.971 13.8133 120.036 13.8133 121.147Z" fill="#45413C"/>
<path d="M74.16 24.8267C71.1467 13.04 59.4133 7.25335 47.4933 8.82669C38.72 10.0534 29.7867 15.2 26.16 22.16C26.0232 22.4405 25.9451 22.7459 25.9304 23.0576C25.9157 23.3693 25.9648 23.6807 26.0746 23.9728C26.1844 24.2648 26.3527 24.5314 26.5692 24.7562C26.7856 24.981 27.0456 25.1592 27.3333 25.28L39.84 30.8267C40.054 30.9111 40.2377 31.058 40.3672 31.2482C40.4966 31.4385 40.5659 31.6633 40.5659 31.8934C40.5659 32.1235 40.4966 32.3482 40.3672 32.5385C40.2377 32.7287 40.054 32.8756 39.84 32.96L29.8933 36.8C29.5693 36.9197 29.2766 37.1111 29.0369 37.3597C28.7972 37.6084 28.6168 37.9081 28.5091 38.2362C28.4014 38.5644 28.3692 38.9127 28.415 39.255C28.4608 39.5974 28.5833 39.925 28.7733 40.2134C33.7333 47.7067 44.4533 51.9467 52.5333 52.08C44.6667 65.1467 33.2533 79.52 36.5333 91.7067C41.4933 111.173 57.8667 86.3734 57.8667 86.3734C53.3333 69.6267 79.52 45.7067 74.16 24.8267Z" fill="url(#paint0_linear_24_42)"/>
<path d="M27.3333 25.4666L28.4533 25.9733C33.387 20.5153 40.095 16.9818 47.3867 16C59.4133 14.32 71.1467 20.1066 74.0533 32C74.2622 32.8164 74.4224 33.6446 74.5333 34.48C74.9906 31.2877 74.8276 28.0372 74.0533 24.9066C71.04 13.12 59.3067 7.33331 47.3867 8.90664C38.6133 10.1333 29.68 15.28 26.0533 22.24C25.901 22.532 25.8134 22.8534 25.7964 23.1824C25.7794 23.5113 25.8335 23.8401 25.9549 24.1462C26.0764 24.4524 26.2624 24.7288 26.5002 24.9567C26.7381 25.1845 27.0222 25.3584 27.3333 25.4666Z" fill="url(#paint1_linear_24_42)"/>
<path d="M74.16 24.8267C71.1467 13.04 59.4133 7.25335 47.4933 8.82669C38.72 10.0534 29.7867 15.2 26.16 22.16C26.0232 22.4405 25.9451 22.7459 25.9304 23.0576C25.9157 23.3693 25.9648 23.6807 26.0746 23.9728C26.1844 24.2648 26.3527 24.5314 26.5692 24.7562C26.7856 24.981 27.0456 25.1592 27.3333 25.28L39.84 30.8267C40.054 30.9111 40.2377 31.058 40.3672 31.2482C40.4966 31.4385 40.5659 31.6633 40.5659 31.8934C40.5659 32.1235 40.4966 32.3482 40.3672 32.5385C40.2377 32.7287 40.054 32.8756 39.84 32.96L29.8933 36.8C29.5693 36.9197 29.2766 37.1111 29.0369 37.3597C28.7972 37.6084 28.6168 37.9081 28.5091 38.2362C28.4014 38.5644 28.3692 38.9127 28.415 39.255C28.4608 39.5974 28.5833 39.925 28.7733 40.2134C33.7333 47.7067 44.4533 51.9467 52.5333 52.08C44.6667 65.1467 33.2533 79.52 36.5333 91.7067C41.4933 111.173 57.8667 86.3734 57.8667 86.3734C53.3333 69.6267 79.52 45.7067 74.16 24.8267Z" stroke="#45413C" stroke-width="0.666667" stroke-linecap="round" stroke-linejoin="round"/>
<path d="M54.72 113.44C54.72 113.44 70.0267 124.907 94.5333 119.867C119.04 114.827 116.56 96.72 116.56 96.72C116.56 96.72 103.227 114.08 78.32 105.973C63.7067 101.333 54.72 113.44 54.72 113.44" fill="url(#paint2_linear_24_42)"/>
<path d="M54.72 113.44C54.72 113.44 70.0267 124.907 94.5333 119.867C119.04 114.827 116.56 96.72 116.56 96.72C116.56 96.72 103.227 114.08 78.32 105.973C63.7067 101.333 54.72 113.44 54.72 113.44" fill="url(#paint3_linear_24_42)"/>
<path d="M93.3333 120C96.6916 116.311 98.9784 111.774 99.9467 106.88C92.7722 108.699 85.2199 108.356 78.24 105.893C63.6267 101.147 54.64 113.36 54.64 113.36C54.64 113.36 69.5733 124.507 93.3333 120Z" fill="url(#paint4_linear_24_42)"/>
<path d="M54.72 113.44C54.72 113.44 70.0267 124.907 94.5333 119.867C119.04 114.827 116.56 96.72 116.56 96.72C116.56 96.72 103.227 114.08 78.32 105.973C63.7067 101.333 54.72 113.44 54.72 113.44Z" stroke="#45413C" stroke-width="0.666667" stroke-linecap="round" stroke-linejoin="round"/>
<path d="M56.88 78.1867C65.3794 74.1561 74.7023 72.1655 84.1067 72.3733C86.582 72.3733 88.956 73.3567 90.7063 75.107C92.4567 76.8573 93.44 79.2313 93.44 81.7067C93.44 84.182 92.4567 86.556 90.7063 88.3063C88.956 90.0567 86.582 91.04 84.1067 91.04C74.5286 90.9002 65.0387 92.8856 56.32 96.8533C48.3596 100.658 39.6495 102.635 30.8267 102.64C29.5679 102.708 28.3086 102.518 27.1256 102.083C25.9426 101.648 24.8606 100.976 23.9457 100.109C23.0308 99.2417 22.3021 98.1972 21.8041 97.0392C21.3062 95.8812 21.0494 94.6339 21.0494 93.3733C21.0494 92.1128 21.3062 90.8655 21.8041 89.7074C22.3021 88.5494 23.0308 87.505 23.9457 86.6379C24.8606 85.7707 25.9426 85.0991 27.1256 84.6639C28.3086 84.2287 29.5679 84.0391 30.8267 84.1067C39.8467 84.1257 48.7539 82.1018 56.88 78.1867Z" fill="url(#paint5_linear_24_42)"/>
<path d="M30.8267 90.4H31.2533C40.1201 90.4058 48.876 88.4287 56.88 84.6134C64.9335 80.7741 73.7448 78.7877 82.6667 78.8H84.24C86.1299 78.8032 87.9735 79.3851 89.5228 80.4672C91.0722 81.5494 92.2531 83.0801 92.9067 84.8534C93.3027 83.8325 93.5105 82.7483 93.52 81.6534C93.52 79.1921 92.5423 76.8317 90.8019 75.0914C89.0616 73.3511 86.7012 72.3734 84.24 72.3734H82.6667C73.7898 72.3809 65.0262 74.3668 57.0133 78.1867C49.0093 82.002 40.2535 83.9791 31.3867 83.9734H30.96C29.4607 83.9553 27.9799 84.3051 26.6471 84.992C25.3143 85.6789 24.1702 86.682 23.315 87.9136C22.4598 89.1451 21.9194 90.5676 21.7413 92.0563C21.5632 93.5451 21.7527 95.0548 22.2933 96.4533C22.942 94.7032 24.1033 93.1894 25.6256 92.1095C27.1479 91.0296 28.9605 90.4339 30.8267 90.4Z" fill="url(#paint6_linear_24_42)"/>
<path d="M84.1067 90.9067H83.0667C73.8641 90.9129 64.7701 92.8953 56.4 96.72L55.2533 97.2267C47.6108 100.72 39.3096 102.538 30.9067 102.56C29.6858 102.571 28.4748 102.34 27.3431 101.882C26.2114 101.423 25.1813 100.746 24.3118 99.8892C23.4423 99.0321 22.7505 98.0118 22.276 96.8868C21.8015 95.7618 21.5536 94.5543 21.5467 93.3334C21.5467 92.1159 21.7869 90.9105 22.2536 89.7861C22.7203 88.6617 23.4042 87.6404 24.2663 86.7808C25.1284 85.9212 26.1516 85.2402 27.2774 84.7767C28.4031 84.3133 29.6093 84.0765 30.8267 84.08H31.2533C40.1201 84.0858 48.876 82.1087 56.88 78.2934C64.925 74.4173 73.7367 72.3943 82.6667 72.3734H84.24C86.6687 72.4222 88.9814 73.4215 90.6816 75.1565C92.3818 76.8916 93.3338 79.2242 93.3333 81.6534C93.3333 84.1029 92.3621 86.4525 90.6325 88.187C88.903 89.9216 86.5562 90.8996 84.1067 90.9067Z" stroke="#45413C" stroke-width="0.666667" stroke-linecap="round" stroke-linejoin="round"/>
<path d="M25.68 120C19.5467 120 14.6133 115.867 14.6133 110.747C14.6133 105.627 19.5467 101.333 25.68 101.333C36.3197 101.417 46.8761 99.4522 56.7733 95.5466C67.1251 91.5065 78.17 89.5404 89.28 89.76C95.3867 89.76 100.347 93.92 100.347 99.0133C100.347 104.107 95.3867 108.293 89.28 108.293C77.9216 108.114 66.6312 110.077 56 114.08C46.3606 117.96 36.0708 119.969 25.68 120Z" fill="url(#paint7_linear_24_42)"/>
<path d="M25.68 108.293H26.1867C36.6567 108.319 47.0362 106.355 56.7733 102.507C66.5206 98.6612 76.9083 96.6976 87.3867 96.72H89.28C91.355 96.6432 93.4107 97.1434 95.2185 98.165C97.0262 99.1866 98.5153 100.69 99.52 102.507C100.047 101.418 100.321 100.223 100.32 99.0134C100.32 93.92 95.3867 89.76 89.28 89.76H87.3867C76.9083 89.7376 66.5206 91.7012 56.7733 95.5467C47.0362 99.3951 36.6567 101.359 26.1867 101.333H25.68C19.5467 101.333 14.6133 105.493 14.6133 110.613C14.6152 111.818 14.8983 113.005 15.44 114.08C16.4424 112.261 17.9309 110.756 19.7393 109.734C21.5476 108.712 23.6045 108.214 25.68 108.293Z" fill="url(#paint8_linear_24_42)"/>
<path d="M89.28 108.293H88C77.0707 108.266 66.2276 110.227 56 114.08L54.64 114.613C45.3918 118.145 35.5796 119.97 25.68 120C19.5467 120 14.6133 115.867 14.6133 110.747C14.6133 105.493 19.5467 101.333 25.68 101.333H26.1867C36.6567 101.359 47.0362 99.3951 56.7733 95.5467C66.5206 91.7012 76.9083 89.7376 87.3867 89.76H89.28C95.3867 89.76 100.347 93.92 100.347 99.0134C100.347 104.133 95.3867 108.293 89.28 108.293Z" stroke="#45413C" stroke-width="0.666667" stroke-linecap="round" stroke-linejoin="round"/>
<path d="M68.2133 35.2C68.2133 36.6667 66.32 37.8667 64 37.8667C61.68 37.8667 59.7867 36.6667 59.7867 35.2C59.7867 33.7333 61.68 32.5333 64 32.5333C66.32 32.5333 68.2133 33.7333 68.2133 35.2Z" fill="#ECE381"/>
<path d="M49.36 24.0267C49.36 24.9461 49.7252 25.8279 50.3754 26.478C51.0255 27.1282 51.9072 27.4934 52.8267 27.4934C53.7461 27.4934 54.6278 27.1282 55.278 26.478C55.9281 25.8279 56.2933 24.9461 56.2933 24.0267C56.2933 23.1073 55.9281 22.2255 55.278 21.5754C54.6278 20.9253 53.7461 20.5601 52.8267 20.5601C51.9072 20.5601 51.0255 20.9253 50.3754 21.5754C49.7252 22.2255 49.36 23.1073 49.36 24.0267Z" fill="#45413C" stroke="#45413C" stroke-width="0.666667" stroke-linecap="round" stroke-linejoin="round"/>
<path d="M37.5733 34C34.3919 32.6408 30.9402 32.0325 27.4857 32.2221C24.0313 32.4117 20.6669 33.3942 17.6533 35.0934M17.6533 29.28L22.5333 32.96" stroke="#45413C" stroke-width="0.666667" stroke-linecap="round" stroke-linejoin="round"/>
<defs>
<linearGradient id="paint0_linear_24_42" x1="50.4074" y1="8.57275" x2="50.4074" y2="99.1636" gradientUnits="userSpaceOnUse">
<stop stop-color="#E83C1E"/>
<stop offset="1" stop-color="#D5DB1E"/>
</linearGradient>
<linearGradient id="paint1_linear_24_42" x1="50.29" y1="8.65271" x2="50.29" y2="34.48" gradientUnits="userSpaceOnUse">
<stop stop-color="#CD6230"/>
<stop offset="1" stop-color="#E4601F"/>
</linearGradient>
<linearGradient id="paint2_linear_24_42" x1="85.6751" y1="96.72" x2="85.6751" y2="121.147" gradientUnits="userSpaceOnUse">
<stop stop-color="#E83C1E"/>
<stop offset="1" stop-color="#D5DB1E"/>
</linearGradient>
<linearGradient id="paint3_linear_24_42" x1="85.6751" y1="96.72" x2="85.6751" y2="121.147" gradientUnits="userSpaceOnUse">
<stop stop-color="#E83C1E"/>
<stop offset="1" stop-color="#D5DB1E"/>
</linearGradient>
<linearGradient id="paint4_linear_24_42" x1="77.2933" y1="104.798" x2="77.2933" y2="121.073" gradientUnits="userSpaceOnUse">
<stop stop-color="#D2622E"/>
<stop offset="1" stop-color="#D8C61F"/>
</linearGradient>
<linearGradient id="paint5_linear_24_42" x1="57.2447" y1="72.3586" x2="57.2447" y2="102.653" gradientUnits="userSpaceOnUse">
<stop stop-color="#E83C1E"/>
<stop offset="1" stop-color="#D5DB1E"/>
</linearGradient>
<linearGradient id="paint6_linear_24_42" x1="57.5982" y1="72.3734" x2="57.5982" y2="96.4534" gradientUnits="userSpaceOnUse">
<stop stop-color="#CD6230"/>
<stop offset="1" stop-color="#E4601F"/>
</linearGradient>
<linearGradient id="paint7_linear_24_42" x1="57.48" y1="89.7434" x2="57.48" y2="120" gradientUnits="userSpaceOnUse">
<stop stop-color="#E83C1E"/>
<stop offset="1" stop-color="#D5DB1E"/>
</linearGradient>
<linearGradient id="paint8_linear_24_42" x1="57.4667" y1="89.7598" x2="57.4667" y2="114.08" gradientUnits="userSpaceOnUse">
<stop stop-color="#CD6230"/>
<stop offset="1" stop-color="#E4601F"/>
</linearGradient>
</defs>
</svg>
